<svg width="106" height="103" viewBox="0 0 106 103" fill="none" xmlns="http://www.w3.org/2000/svg">
<mask id="mask0_1072_978" style="mask-type:alpha" maskUnits="userSpaceOnUse" x="0" y="0" width="98" height="98">
<path d="M83.8068 48.9117C116.649 86.3213 86.3213 116.649 48.9117 83.8068C11.5021 116.649 -18.8258 86.3213 14.0166 48.9117C-18.8258 11.5021 11.5021 -18.8258 48.9117 14.0166C86.3213 -18.8258 116.649 11.5021 83.8068 48.9117Z" fill="#231F20"/>
</mask>
<g mask="url(#mask0_1072_978)">
<rect x="-5" y="-14" width="107" height="161" fill="#B9FF66" style="mix-blend-mode:multiply"/>
</g>
<g filter="url(#filter0_i_1072_978)">
<path d="M91.631 53.9117C124.473 91.3213 94.1455 121.649 56.7359 88.8068C19.3263 121.649 -11.0016 91.3213 21.8408 53.9117C-11.0016 16.5021 19.3263 -13.8258 56.7359 19.0166C94.1455 -13.8258 124.473 16.5021 91.631 53.9117Z" fill="#231F20"/>
</g>
<path d="M91.2552 53.5818L90.9656 53.9117L91.2552 54.2416C99.4219 63.5439 103.629 72.3694 104.801 79.8422C105.972 87.3114 104.114 93.4104 100.174 97.3502C96.2346 101.29 90.1356 103.148 82.6664 101.977C75.1936 100.804 66.3681 96.5977 57.0658 88.431L56.7359 88.1414L56.406 88.431C47.1037 96.5977 38.2782 100.804 30.8054 101.977C23.3362 103.148 17.2372 101.29 13.2974 97.3502C9.35761 93.4104 7.49937 87.3114 8.671 79.8422C9.84318 72.3694 14.0499 63.5439 22.2166 54.2416L22.5062 53.9117L22.2166 53.5818C14.0499 44.2795 9.84318 35.454 8.671 27.9812C7.49937 20.512 9.35761 14.413 13.2974 10.4732C17.2372 6.53339 23.3362 4.67516 30.8054 5.84678C38.2782 7.01897 47.1037 11.2257 56.406 19.3923L56.7359 19.6819L57.0658 19.3923C66.3681 11.2257 75.1936 7.01897 82.6664 5.84678C90.1356 4.67516 96.2346 6.53339 100.174 10.4732C104.114 14.413 105.972 20.512 104.801 27.9812C103.629 35.454 99.4219 44.2795 91.2552 53.5818Z" stroke="black"/>
<path d="M65.6352 54.8708L60.9102 52.5083C62.7914 51.05 64.0018 48.775 64.0018 46.2083C64.0018 41.7896 60.3997 38.1875 55.981 38.1875C51.5622 38.1875 47.9602 41.7896 47.9602 46.2083C47.9602 49.3146 49.7393 52.0125 52.3352 53.3396V58.0938C49.1997 57.4229 49.3893 57.4521 49.0393 57.4521C48.2664 57.4521 47.5372 57.7583 46.9831 58.3125L44.9414 60.3833L52.3643 67.8062C52.9914 68.4479 53.8664 68.8125 54.7706 68.8125H63.9581C65.3872 68.8125 66.5977 67.7917 66.831 66.3771L67.9977 59.5083C68.3185 57.6125 67.3706 55.7458 65.6352 54.8708ZM65.1247 59.0271L63.9581 65.8958H54.7706C54.6393 65.8958 54.5227 65.8375 54.4206 65.75L49.0539 60.3833L55.2518 61.6813V46.2083C55.2518 45.8 55.5727 45.4792 55.981 45.4792C56.3893 45.4792 56.7102 45.8 56.7102 46.2083V54.9583H59.2768L64.3227 57.4813C64.906 57.7729 65.2268 58.4 65.1247 59.0271ZM50.8768 46.2083C50.8768 43.3938 53.1664 41.1042 55.981 41.1042C58.7956 41.1042 61.0852 43.3938 61.0852 46.2083C61.0852 47.5938 60.531 48.8479 59.6268 49.7667V46.2083C59.6268 44.1958 57.9935 42.5625 55.981 42.5625C53.9685 42.5625 52.3352 44.1958 52.3352 46.2083V49.7667C51.431 48.8479 50.8768 47.5938 50.8768 46.2083Z" fill="#B9FF66"/>
<defs>
<filter id="filter0_i_1072_978" x="7.82422" y="5" width="97.8242" height="101.823" filterUnits="userSpaceOnUse" color-interpolation-filters="sRGB">
<feFlood flood-opacity="0" result="BackgroundImageFix"/>
<feBlend mode="normal" in="SourceGraphic" in2="BackgroundImageFix" result="shape"/>
<feColorMatrix in="SourceAlpha" type="matrix" values="0 0 0 0 0 0 0 0 0 0 0 0 0 0 0 0 0 0 127 0" result="hardAlpha"/>
<feOffset dy="4"/>
<feGaussianBlur stdDeviation="2"/>
<feComposite in2="hardAlpha" operator="arithmetic" k2="-1" k3="1"/>
<feColorMatrix type="matrix" values="0 0 0 0 0 0 0 0 0 0 0 0 0 0 0 0 0 0 0.25 0"/>
<feBlend mode="normal" in2="shape" result="effect1_innerShadow_1072_978"/>
</filter>
</defs>
</svg>
