<svg width="106" height="103" viewBox="0 0 106 103" fill="none" xmlns="http://www.w3.org/2000/svg">
<mask id="mask0_922_630" style="mask-type:alpha" maskUnits="userSpaceOnUse" x="0" y="0" width="98" height="98">
<path d="M83.8068 48.9117C116.649 86.3213 86.3213 116.649 48.9117 83.8068C11.5021 116.649 -18.8258 86.3213 14.0166 48.9117C-18.8258 11.5021 11.5021 -18.8258 48.9117 14.0166C86.3213 -18.8258 116.649 11.5021 83.8068 48.9117Z" fill="#231F20"/>
</mask>
<g mask="url(#mask0_922_630)">
<rect x="-5" y="-14" width="107" height="161" fill="#B9FF66" style="mix-blend-mode:multiply"/>
</g>
<g filter="url(#filter0_i_922_630)">
<path d="M91.631 53.9117C124.473 91.3213 94.1455 121.649 56.7359 88.8068C19.3263 121.649 -11.0016 91.3213 21.8408 53.9117C-11.0016 16.5021 19.3263 -13.8258 56.7359 19.0166C94.1455 -13.8258 124.473 16.5021 91.631 53.9117Z" fill="#231F20"/>
</g>
<path d="M91.2552 53.5818L90.9656 53.9117L91.2552 54.2416C99.4219 63.5439 103.629 72.3694 104.801 79.8422C105.972 87.3114 104.114 93.4104 100.174 97.3502C96.2346 101.29 90.1356 103.148 82.6664 101.977C75.1936 100.804 66.3681 96.5977 57.0658 88.431L56.7359 88.1414L56.406 88.431C47.1037 96.5977 38.2782 100.804 30.8054 101.977C23.3362 103.148 17.2372 101.29 13.2974 97.3502C9.35761 93.4104 7.49937 87.3114 8.671 79.8422C9.84318 72.3694 14.0499 63.5439 22.2166 54.2416L22.5062 53.9117L22.2166 53.5818C14.0499 44.2795 9.84318 35.454 8.671 27.9812C7.49937 20.512 9.35761 14.413 13.2974 10.4732C17.2372 6.53339 23.3362 4.67516 30.8054 5.84678C38.2782 7.01897 47.1037 11.2257 56.406 19.3923L56.7359 19.6819L57.0658 19.3923C66.3681 11.2257 75.1936 7.01897 82.6664 5.84678C90.1356 4.67516 96.2346 6.53339 100.174 10.4732C104.114 14.413 105.972 20.512 104.801 27.9812C103.629 35.454 99.4219 44.2795 91.2552 53.5818Z" stroke="black"/>
<path d="M56.5007 52.042C58.4402 52.042 62.334 53.0191 62.334 54.9587V55.192C60.9194 56.8253 58.834 57.8753 56.5007 57.8753C54.1673 57.8753 52.0819 56.8253 50.6673 55.192V54.9587C50.6673 53.0191 54.5611 52.042 56.5007 52.042ZM56.5007 50.5837C54.8965 50.5837 53.584 49.2712 53.584 47.667C53.584 46.0628 54.8965 44.7503 56.5007 44.7503C58.1048 44.7503 59.4173 46.0628 59.4173 47.667C59.4173 49.2712 58.1048 50.5837 56.5007 50.5837ZM65.2507 50.8753C65.2507 45.5816 61.3861 41.8337 56.5007 41.8337C51.6152 41.8337 47.7507 45.5816 47.7507 50.8753C47.7507 54.2878 50.5944 58.8087 56.5007 64.2045C62.4069 58.8087 65.2507 54.2878 65.2507 50.8753ZM56.5007 38.917C62.6257 38.917 68.1673 43.6128 68.1673 50.8753C68.1673 55.717 64.2736 61.4482 56.5007 68.0837C48.7277 61.4482 44.834 55.717 44.834 50.8753C44.834 43.6128 50.3757 38.917 56.5007 38.917Z" fill="#B9FF66"/>
<defs>
<filter id="filter0_i_922_630" x="7.82422" y="5" width="97.8242" height="101.823" filterUnits="userSpaceOnUse" color-interpolation-filters="sRGB">
<feFlood flood-opacity="0" result="BackgroundImageFix"/>
<feBlend mode="normal" in="SourceGraphic" in2="BackgroundImageFix" result="shape"/>
<feColorMatrix in="SourceAlpha" type="matrix" values="0 0 0 0 0 0 0 0 0 0 0 0 0 0 0 0 0 0 127 0" result="hardAlpha"/>
<feOffset dy="4"/>
<feGaussianBlur stdDeviation="2"/>
<feComposite in2="hardAlpha" operator="arithmetic" k2="-1" k3="1"/>
<feColorMatrix type="matrix" values="0 0 0 0 0 0 0 0 0 0 0 0 0 0 0 0 0 0 0.25 0"/>
<feBlend mode="normal" in2="shape" result="effect1_innerShadow_922_630"/>
</filter>
</defs>
</svg>
