<?xml version="1.0" encoding="UTF-8"?>
<!DOCTYPE svg PUBLIC "-//W3C//DTD SVG 1.1//EN" "http://www.w3.org/Graphics/SVG/1.1/DTD/svg11.dtd">
<!-- Creator: CorelDRAW 2019 (64-Bit) -->
<svg xmlns="http://www.w3.org/2000/svg" xml:space="preserve" width="174.846mm" height="27.1339mm" version="1.1" style="shape-rendering:geometricPrecision; text-rendering:geometricPrecision; image-rendering:optimizeQuality; fill-rule:evenodd; clip-rule:evenodd"
viewBox="0 0 186.3825 28.9243"
 xmlns:xlink="http://www.w3.org/1999/xlink"
 xmlns:xodm="http://www.corel.com/coreldraw/odm/2003">
 <defs>
  <style type="text/css">
   <![CDATA[
    .fil0 {fill:black}
   ]]>
  </style>
 </defs>
 <g id="Layer_x0020_1">
  <metadata id="CorelCorpID_0Corel-Layer"/>
  <path class="fil0" d="M3.381 28.9198l-2.6165 0c-0.2185,0 -0.7645,0 -0.7645,-0.3273 0,-0.2168 0.1097,-0.327 0.4368,-0.4368 2.4017,-0.7644 2.9437,-2.0729 2.9437,-3.925l0 -19.5371c0,-1.7464 -0.5466,-3.0561 -2.9437,-3.9251 -0.3272,0 -0.4368,-0.2184 -0.4368,-0.3273 0,-0.4358 0.546,-0.327 0.7645,-0.327l21.6047 0c4.9098,0 8.9487,3.9251 8.9487,8.8385 0,4.9141 -4.0389,8.834 -8.9487,8.834l-10.9127 0 0 6.6569c0.1098,1.7458 0.6542,2.9436 2.9441,3.7096 0.3266,0.1097 0.4359,0.2194 0.4359,0.4368 0,0.3272 -0.5456,0.3272 -0.764,0.3272l-10.6916 0 0 0.0026zm161.0713 -10.5854l0 0 5.1283 0 -5.1283 -8.7304 -0.5475 -0.8737 -4.5782 9.6041 5.1257 0zm0 -18.3318l0 0 3.4922 0 14.621 25.7577c0.4377,0.6537 0.9825,1.308 1.6362,1.635 0.5448,0.4374 1.1998,0.5482 1.7447,0.7646 0.2188,0.1106 0.4362,0.2199 0.4362,0.4374 0,0.327 -0.5448,0.327 -0.7637,0.327l-12.9863 0c-0.2161,0 -0.8736,0 -0.8736,-0.327 0,-0.2175 0.22,-0.3267 0.4401,-0.4374 0.6537,-0.2164 1.0885,-0.5445 1.3073,-1.1988 0.22,-0.7651 0,-1.1994 -0.545,-2.1838 -0.7416,-1.575 -1.5041,-3.1393 -2.2897,-4.6919l-12.2226 0 -0.1076 0.2174c-0.1112,0.4374 -0.9811,1.9623 -1.6361,3.602 -0.871,1.7458 -1.1986,2.1816 -0.9811,3.0548 0.1114,0.6543 0.6549,0.9813 1.3086,1.1999 0.2202,0.1101 0.3275,0.2199 0.3275,0.4363 0,0.3272 -0.5474,0.3272 -0.7648,0.3272l-6.0032 0c-0.2176,0 -0.7637,0 -0.7637,-0.3272 0,-0.2164 0.11,-0.3272 0.4362,-0.4363 0.5475,-0.218 1.1998,-0.3273 1.746,-0.7649 0.6537,-0.3267 1.2012,-0.981 1.6348,-1.6352l0.7651 -1.6356 8.2941 -17.3565 -1.2024 -2.0734c-1.0885,-1.7464 -2.181,-2.8375 -3.382,-3.4924 -0.5449,-0.327 -1.0912,-0.327 -1.6348,-0.5456 -0.3276,-0.1096 -0.4376,-0.2188 -0.3276,-0.4372 0,-0.2185 0.2175,-0.1088 0.3276,-0.2185l7.968 0 -0.0013 0.0026zm-32.6257 28.8064l0 0 0.4362 0c20.0795,0 19.862,-28.7013 0,-28.7013l-16.4778 0c-0.3272,0 -0.8715,-0.1093 -0.8715,0.3272 0,0.1087 0.2172,0.3272 0.4346,0.3272 2.4012,0.764 2.9436,2.074 3.0551,3.7116l0 19.9756c-0.1078,1.7448 -0.6539,2.9436 -3.0551,3.7091 -0.2174,0.1102 -0.4346,0.2199 -0.4346,0.4374 0,0.3272 0.5455,0.3272 0.8715,0.3272l10.5849 0 0 -0.1102 5.4567 0 0 -0.0036zm0 -26.6257l0 0c3.069,0.0122 5.5542,2.4961 5.5671,5.5652l0 13.3138c-0.0129,3.0694 -2.4981,5.5535 -5.5671,5.5651l-5.4607 0 0 -24.4441 5.4607 0zm-41.5799 16.1511l0 0 5.1283 0 -5.1283 -8.7304 -0.5466 -0.8737 -4.5786 9.6041 5.1252 0zm0 -18.3318l0 0 3.5979 0 14.6227 25.7577c0.327,0.6537 0.873,1.308 1.5285,1.635 0.5444,0.4374 1.2007,0.5482 1.8549,0.7646 0.2174,0.1106 0.4353,0.2199 0.4353,0.4374 0,0.327 -0.6542,0.327 -0.8717,0.327l-12.9811 0c-0.2193,0 -0.7648,0 -0.7648,-0.327 0,-0.2175 0.1081,-0.3267 0.4353,-0.4374 0.547,-0.2164 1.0904,-0.5445 1.2013,-1.1988 0.2176,-0.7651 0,-1.1994 -0.4367,-2.1838 -0.7645,-1.6356 -1.6359,-3.1646 -2.3992,-4.6919l-12.2256 0 -0.1087 0.2174c-0.1085,0.4374 -0.873,1.9623 -1.635,3.602 -0.764,1.7458 -1.1999,2.1816 -0.9815,3.0548 0.2183,0.6543 0.6544,0.9813 1.3084,1.1999 0.2176,0.1101 0.4358,0.2199 0.4358,0.4363 0,0.3272 -0.5454,0.3272 -0.8715,0.3272l-5.8949 0c-0.2184,0 -0.8736,0 -0.8736,-0.3272 0,-0.2164 0.2184,-0.3272 0.4368,-0.4363 0.6543,-0.218 1.2004,-0.3273 1.8561,-0.7649 0.5444,-0.3267 1.2003,-0.981 1.5268,-1.6352l0.7636 -1.6356 8.4036 -17.3565 -1.1988 -2.0734c-1.091,-1.7464 -2.2892,-2.8375 -3.3829,-3.4924 -0.6538,-0.327 -1.0916,-0.327 -1.7465,-0.5456 -0.2193,-0.1096 -0.4373,-0.2188 -0.3269,-0.4372 0.1102,-0.2185 0.3269,-0.1088 0.4373,-0.2185l7.8565 0 -0.0014 0.0026zm-36.0124 19.0963l0 0c2.5103,0.8717 5.5662,1.0896 7.9658,0.3272l9.4952 8.1852 0.7637 0.6543c0.0844,0.0865 0.1253,0.2068 0.1106,0.327 0,0.3273 -0.5464,0.3273 -0.7654,0.3273l-10.0389 0 -7.5296 -6.2205 -6.1123 -4.9119 0 6.7675c0.1103,1.6351 0.7644,2.8365 3.0559,3.5979 0.2185,0.1102 0.3272,0.2188 0.3272,0.4363 0,0.3272 -0.5466,0.3272 -0.7654,0.3272l-13.2035 0c-0.3274,0 -0.8734,0 -0.8734,-0.3272 0,-0.2175 0.2191,-0.327 0.4359,-0.4363 2.6166,-0.8717 2.9436,-2.1817 3.0554,-4.2522l0 -18.8798c-0.1091,-1.9623 -0.4363,-3.3831 -3.0554,-4.2521 -0.2185,0 -0.4359,-0.2184 -0.4359,-0.3273 0,-0.4358 0.546,-0.327 0.8734,-0.327l21.2799 0c2.3344,-0.0096 4.5772,0.908 6.2347,2.5519 1.6579,1.6436 2.5949,3.8789 2.6044,6.2134l0 0.0732c0.0172,4.859 -3.9053,8.8128 -8.7643,8.834l-6.9499 0c0.327,0.6539 1.0905,0.8733 1.7447,1.2008 0.2191,0 0.3273,0.1113 0.5461,0.1113l0.0011 0zm0 -3.3825l0 0 0.8771 0c2.8365,0 5.2382,-3.0569 5.2382,-6.9861 -0.0045,-3.8194 -2.4057,-6.8742 -5.2382,-6.8742l-6.989 0 0 13.8603 6.1119 0zm-36.5582 -13.8593l0 0 -6.2195 0 0 13.8597 7.2034 0c2.9436,0 5.2332,-3.0565 5.2332,-6.9855 0,-3.8184 -2.2896,-6.8742 -5.2332,-6.8742l-0.9839 0z"/>
 </g>
</svg>
