<svg width="106" height="103" viewBox="0 0 106 103" fill="none" xmlns="http://www.w3.org/2000/svg">
<mask id="mask0_1072_984" style="mask-type:alpha" maskUnits="userSpaceOnUse" x="0" y="0" width="98" height="98">
<path d="M83.8068 48.9117C116.649 86.3213 86.3213 116.649 48.9117 83.8068C11.5021 116.649 -18.8258 86.3213 14.0166 48.9117C-18.8258 11.5021 11.5021 -18.8258 48.9117 14.0166C86.3213 -18.8258 116.649 11.5021 83.8068 48.9117Z" fill="#231F20"/>
</mask>
<g mask="url(#mask0_1072_984)">
<rect x="-5" y="-14" width="107" height="161" fill="#B9FF66" style="mix-blend-mode:multiply"/>
</g>
<g filter="url(#filter0_i_1072_984)">
<path d="M91.631 53.9117C124.473 91.3213 94.1455 121.649 56.7359 88.8068C19.3263 121.649 -11.0016 91.3213 21.8408 53.9117C-11.0016 16.5021 19.3263 -13.8258 56.7359 19.0166C94.1455 -13.8258 124.473 16.5021 91.631 53.9117Z" fill="#231F20"/>
</g>
<path d="M91.2552 53.5818L90.9656 53.9117L91.2552 54.2416C99.4219 63.5439 103.629 72.3694 104.801 79.8422C105.972 87.3114 104.114 93.4104 100.174 97.3502C96.2346 101.29 90.1356 103.148 82.6664 101.977C75.1936 100.804 66.3681 96.5977 57.0658 88.431L56.7359 88.1414L56.406 88.431C47.1037 96.5977 38.2782 100.804 30.8054 101.977C23.3362 103.148 17.2372 101.29 13.2974 97.3502C9.35761 93.4104 7.49937 87.3114 8.671 79.8422C9.84318 72.3694 14.0499 63.5439 22.2166 54.2416L22.5062 53.9117L22.2166 53.5818C14.0499 44.2795 9.84318 35.454 8.671 27.9812C7.49937 20.512 9.35761 14.413 13.2974 10.4732C17.2372 6.53339 23.3362 4.67516 30.8054 5.84678C38.2782 7.01897 47.1037 11.2257 56.406 19.3923L56.7359 19.6819L57.0658 19.3923C66.3681 11.2257 75.1936 7.01897 82.6664 5.84678C90.1356 4.67516 96.2346 6.53339 100.174 10.4732C104.114 14.413 105.972 20.512 104.801 27.9812C103.629 35.454 99.4219 44.2795 91.2552 53.5818Z" stroke="black"/>
<path d="M56.5 47.6663C58.1108 47.6663 59.4167 46.3605 59.4167 44.7497C59.4167 43.1388 58.1108 41.833 56.5 41.833C54.8892 41.833 53.5833 43.1388 53.5833 44.7497C53.5833 46.3605 54.8892 47.6663 56.5 47.6663Z" fill="#B9FF66"/>
<path d="M69.625 59.333V56.4163C66.3583 56.4163 63.5583 55.0163 61.4583 52.508L59.5042 50.1747C58.95 49.5038 58.1333 49.1247 57.2729 49.1247H55.7417C54.8812 49.1247 54.0646 49.5038 53.5104 50.1747L51.5562 52.508C49.4417 55.0163 46.6417 56.4163 43.375 56.4163V59.333C47.4146 59.333 50.9438 57.6268 53.5833 54.5934V57.8747L47.925 60.1351C46.9479 60.5288 46.2917 61.4913 46.2917 62.5559C46.2917 63.9997 47.4583 65.1663 48.9021 65.1663H52.125V64.4372C52.125 62.4247 53.7583 60.7913 55.7708 60.7913H60.1458C60.5542 60.7913 60.875 61.1122 60.875 61.5205C60.875 61.9288 60.5542 62.2497 60.1458 62.2497H55.7708C54.5604 62.2497 53.5833 63.2268 53.5833 64.4372V65.1663H64.0979C65.5417 65.1663 66.7083 63.9997 66.7083 62.5559C66.7083 61.4913 66.0521 60.5288 65.075 60.1351L59.4167 57.8747V54.5934C62.0562 57.6268 65.5854 59.333 69.625 59.333Z" fill="#B9FF66"/>
<defs>
<filter id="filter0_i_1072_984" x="7.82422" y="5" width="97.8242" height="101.823" filterUnits="userSpaceOnUse" color-interpolation-filters="sRGB">
<feFlood flood-opacity="0" result="BackgroundImageFix"/>
<feBlend mode="normal" in="SourceGraphic" in2="BackgroundImageFix" result="shape"/>
<feColorMatrix in="SourceAlpha" type="matrix" values="0 0 0 0 0 0 0 0 0 0 0 0 0 0 0 0 0 0 127 0" result="hardAlpha"/>
<feOffset dy="4"/>
<feGaussianBlur stdDeviation="2"/>
<feComposite in2="hardAlpha" operator="arithmetic" k2="-1" k3="1"/>
<feColorMatrix type="matrix" values="0 0 0 0 0 0 0 0 0 0 0 0 0 0 0 0 0 0 0.25 0"/>
<feBlend mode="normal" in2="shape" result="effect1_innerShadow_1072_984"/>
</filter>
</defs>
</svg>
